<?xml version="1.0" standalone="no"?>
<!DOCTYPE svg PUBLIC "-//W3C//DTD SVG 20010904//EN"
 "http://www.w3.org/TR/2001/REC-SVG-20010904/DTD/svg10.dtd">
<svg version="1.0" xmlns="http://www.w3.org/2000/svg"
 width="160.000000pt" height="160.000000pt" viewBox="0 0 160.000000 160.000000"
 preserveAspectRatio="xMidYMid meet">

<g transform="translate(0.000000,160.000000) scale(0.100000,-0.100000)"
fill="#000000" stroke="none">
<path d="M733 1550 c-3 -11 -12 -20 -19 -20 -12 0 -14 -50 -14 -295 l0 -295
-40 0 -40 0 0 180 c0 173 -1 180 -20 180 -11 0 -20 7 -20 15 0 10 -10 15 -29
15 -16 0 -31 -6 -35 -15 -3 -8 -12 -15 -21 -15 -13 0 -15 -29 -15 -215 0 -165
3 -215 13 -215 15 0 57 -44 57 -59 0 -7 27 -11 75 -11 l75 0 0 -385 0 -385
105 0 105 0 0 285 0 285 35 0 c19 0 35 4 35 8 0 5 16 14 35 22 19 8 35 20 35
27 0 7 7 13 16 13 9 0 18 9 21 20 3 11 12 20 19 20 11 0 14 35 14 194 0 185
-1 194 -20 199 -11 3 -20 12 -20 21 0 11 -9 16 -30 16 -23 0 -30 -4 -30 -20 0
-13 -7 -20 -20 -20 -19 0 -20 -8 -22 -197 l-3 -198 -32 -3 -33 -3 0 415 c0
409 0 416 -20 416 -13 0 -20 7 -20 20 0 18 -7 20 -66 20 -57 0 -67 -3 -71 -20z"/>
</g>
</svg>
