<?xml version="1.0" standalone="no"?>
<!DOCTYPE svg PUBLIC "-//W3C//DTD SVG 20010904//EN"
 "http://www.w3.org/TR/2001/REC-SVG-20010904/DTD/svg10.dtd">
<svg version="1.0" xmlns="http://www.w3.org/2000/svg"
 width="920.000000pt" height="512.000000pt" viewBox="0 0 920.000000 512.000000"
 preserveAspectRatio="xMidYMid meet">

<g transform="translate(0.000000,512.000000) scale(0.100000,-0.100000)"
fill="#000000" stroke="none">
<path d="M4600 4995 c-4 -106 -8 -130 -20 -131 -8 -1 -66 -2 -127 -3 l-113 -1
-2 -766 -3 -766 -125 -1 -125 -2 0 -120 c0 -82 -4 -124 -12 -133 -8 -8 -13 -9
-13 -2 0 7 -35 10 -112 8 l-113 -3 -2 -125 -1 -125 -126 -3 -126 -3 -1 -112
c-1 -62 -1 -120 0 -129 2 -16 -10 -18 -128 -18 l-131 0 0 -130 0 -129 -255 0
-255 0 0 129 0 129 -126 3 -126 3 -1 125 -2 125 -127 3 -128 3 -2 252 -3 252
-127 3 -128 3 0 -646 0 -645 131 0 130 0 -1 -112 c-1 -62 -1 -119 -1 -126 1
-11 26 -13 124 -11 l122 4 3 -128 3 -127 124 0 125 0 0 -130 0 -130 130 0 130
0 0 -130 0 -130 130 0 130 0 2 -512 3 -513 5 510 5 510 3 -507 2 -508 250 0
251 0 -3 127 -3 128 -128 3 -128 3 3 125 3 126 125 1 125 2 2 118 c0 65 4 121
6 124 3 2 59 6 124 6 l118 2 2 125 1 125 126 3 125 3 3 -128 3 -128 118 -3
c90 -2 117 0 117 10 0 9 3 8 10 -2 6 -9 11 -171 12 -395 l3 -380 5 380 5 380
3 -378 2 -377 248 2 247 3 0 125 0 125 -127 3 -128 3 0 509 0 510 130 0 130 0
0 130 0 130 125 0 125 0 0 125 c0 112 2 125 18 126 9 0 65 0 125 0 78 -1 107
3 107 12 0 6 0 180 0 385 l0 372 130 0 130 0 0 -130 0 -130 130 0 130 0 0 260
0 260 -260 0 -261 0 3 250 3 251 510 2 510 2 3 128 3 127 -368 1 c-202 1 -375
2 -383 3 -12 1 -16 24 -18 129 l-3 127 643 2 643 3 -640 5 -640 5 638 3 637 2
0 500 0 500 -102 1 c-57 1 -114 2 -128 2 l-25 2 -3 128 -3 127 -1139 0 -1140
0 -2 -132 -2 -133 -6 135 -6 135 -4 -130z m438 -122 c-26 -2 -71 -2 -100 0
-29 2 -8 3 47 3 55 0 79 -1 53 -3z m73 -138 c-1 -66 -6 -122 -11 -125 -4 -3
-60 -4 -124 -2 l-116 3 0 125 0 125 126 -3 126 -3 -1 -120z m-747 100 c-4 -8
-8 -15 -10 -15 -2 0 -4 7 -4 15 0 8 4 15 10 15 5 0 7 -7 4 -15z m169 8 c-29
-2 -77 -2 -105 0 -29 2 -6 3 52 3 58 0 81 -1 53 -3z m2565 0 c-32 -2 -84 -2
-115 0 -32 2 -6 3 57 3 63 0 89 -1 58 -3z m-2741 -1115 c-1 -200 -2 -37 -2
362 0 399 1 562 2 363 2 -200 2 -526 0 -725z m1510 -70 c-2 -35 -3 -9 -3 57 0
66 1 94 3 63 2 -32 2 -86 0 -120z m550 -95 c-98 -2 -256 -2 -350 0 -95 1 -14
3 178 2 193 0 270 -1 172 -2z m-34 -230 c-134 -2 -352 -2 -485 0 -134 1 -25 2
242 2 267 0 376 -1 243 -2z m-4096 -45 c-3 -7 -5 -2 -5 12 0 14 2 19 5 13 2
-7 2 -19 0 -25z m1810 -140 c-2 -24 -4 -5 -4 42 0 47 2 66 4 43 2 -24 2 -62 0
-85z m-190 -84 c-3 -3 -12 -4 -19 -1 -8 3 -5 6 6 6 11 1 17 -2 13 -5z m-47 -8
c0 -3 -4 -8 -10 -11 -5 -3 -10 -1 -10 4 0 6 5 11 10 11 6 0 10 -2 10 -4z
m-1362 -253 c-32 -2 -86 -2 -120 0 -35 2 -9 3 57 3 66 0 94 -1 63 -3z m1257 1
c-71 -8 -165 -8 -165 -1 0 4 44 6 98 5 53 0 84 -3 67 -4z m2375 -1 c0 -5 -73
-7 -162 -5 -305 4 -333 8 -85 10 136 1 247 -1 247 -5z m-2533 -145 c-2 -13 -4
-3 -4 22 0 25 2 35 4 23 2 -13 2 -33 0 -45z m0 -60 c-3 -8 -6 -5 -6 6 -1 11 2
17 5 13 3 -3 4 -12 1 -19z m2226 -25 c-34 -2 -93 -2 -130 0 -37 2 -9 3 62 3
72 0 102 -1 68 -3z m-3080 -30 c-35 -2 -91 -2 -125 0 -35 2 -7 3 62 3 69 0 97
-1 63 -3z m715 0 l-117 -4 -4 -122 -3 -122 -2 128 -2 127 123 -2 122 -2 -117
-3z m2444 -151 c2 -45 0 -82 -4 -82 -5 0 -7 55 -6 123 2 124 5 109 10 -41z
m223 -72 c-4 -6 -49 -9 -108 -8 l-102 2 105 6 c58 3 106 7 108 8 2 1 0 -2 -3
-8z m-2937 -37 c-65 -2 -171 -2 -235 0 -65 1 -12 3 117 3 129 0 182 -2 118 -3z
m-970 -230 c-32 -2 -84 -2 -115 0 -32 2 -6 3 57 3 63 0 89 -1 58 -3z m99 -150
c-2 -21 -4 -6 -4 32 0 39 2 55 4 38 2 -18 2 -50 0 -70z m0 -95 c-3 -8 -6 -5
-6 6 -1 11 2 17 5 13 3 -3 4 -12 1 -19z m273 -254 c0 -2 -7 -4 -15 -4 -8 0
-15 4 -15 10 0 5 7 7 15 4 8 -4 15 -8 15 -10z m2597 0 c-3 -3 -12 -4 -19 -1
-8 3 -5 6 6 6 11 1 17 -2 13 -5z m100 0 c-3 -3 -12 -4 -19 -1 -8 3 -5 6 6 6
11 1 17 -2 13 -5z m-2470 -187 c-2 -23 -3 -1 -3 48 0 50 1 68 3 42 2 -26 2
-67 0 -90z m218 -71 c17 -1 -27 -4 -97 -4 -71 -1 -128 1 -128 6 0 6 155 6 225
-2z m2013 -3 c-32 -2 -86 -2 -120 0 -35 2 -9 3 57 3 66 0 94 -1 63 -3z m-1971
-185 c-2 -29 -3 -6 -3 52 0 58 1 81 3 53 2 -29 2 -77 0 -105z m8 -68 c3 -5 1
-10 -4 -10 -6 0 -11 5 -11 10 0 6 2 10 4 10 3 0 8 -4 11 -10z m173 -7 c-27 -2
-69 -2 -95 0 -27 2 -5 3 47 3 52 0 74 -1 48 -3z m1025 0 c-29 -2 -78 -2 -110
0 -32 2 -8 3 52 3 61 0 87 -1 58 -3z m74 -205 c-2 -29 -3 -6 -3 52 0 58 1 81
3 53 2 -29 2 -77 0 -105z m-334 -55 c-24 -2 -62 -2 -85 0 -24 2 -5 4 42 4 47
0 66 -2 43 -4z m515 0 c-21 -2 -57 -2 -80 0 -24 2 -7 4 37 4 44 0 63 -2 43 -4z
m-760 -530 c-32 -2 -86 -2 -120 0 -35 2 -9 3 57 3 66 0 94 -1 63 -3z m1280 0
c-32 -2 -86 -2 -120 0 -35 2 -9 3 57 3 66 0 94 -1 63 -3z"/>
</g>
</svg>
